HIERARCHY
ROOT root
{
	OFFSET 0.000000 0.000000 0.000000
	CHANNELS 6 Xposition Yposition Zposition Zrotation Yrotation Xrotation
	JOINT lhip
	{
		OFFSET 0.058581 -0.082280 -0.017664
		CHANNELS 3 Zrotation Yrotation Xrotation
		JOINT lknee
		{
			OFFSET 0.043451 -0.386469 0.008037
			CHANNELS 3 Zrotation Yrotation Xrotation
			JOINT lankle
			{
				OFFSET -0.014790 -0.426874 -0.037428
				CHANNELS 3 Zrotation Yrotation Xrotation
				JOINT ltoe
				{
					OFFSET 0.041054 -0.060286 0.122042
					CHANNELS 3 Zrotation Yrotation Xrotation
					End Site
					{
						OFFSET 0.000000 0.000000 0.000000
					}
				}
			}
		}
	}
	JOINT rhip
	{
		OFFSET -0.060310 -0.090513 -0.013543
		CHANNELS 3 Zrotation Yrotation Xrotation
		JOINT rknee
		{
			OFFSET -0.043257 -0.383688 -0.004843
			CHANNELS 3 Zrotation Yrotation Xrotation
			JOINT rankle
			{
				OFFSET 0.019056 -0.420046 -0.034562
				CHANNELS 3 Zrotation Yrotation Xrotation
				JOINT rtoe
				{
					OFFSET -0.034840 -0.062106 0.130323
					CHANNELS 3 Zrotation Yrotation Xrotation
					End Site
					{
						OFFSET 0.000000 0.000000 0.000000
					}
				}
			}
		}
	}
	JOINT lowerback
	{
		OFFSET 0.004439 0.124404 -0.038385
		CHANNELS 3 Zrotation Yrotation Xrotation
		JOINT upperback
		{
			OFFSET 0.004488 0.137956 0.026820
			CHANNELS 3 Zrotation Yrotation Xrotation
			JOINT chest
			{
				OFFSET -0.002265 0.056032 0.002855
				CHANNELS 3 Zrotation Yrotation Xrotation
				JOINT lowerneck
				{
					OFFSET -0.013390 0.211636 -0.033468
					CHANNELS 3 Zrotation Yrotation Xrotation
					JOINT upperneck
					{
						OFFSET 0.010113 0.088937 0.050410
						CHANNELS 3 Zrotation Yrotation Xrotation
						End Site
						{
							OFFSET 0.000000 0.000000 0.000000
						}
					}
				}
				JOINT lclavicle
				{
					OFFSET 0.071702 0.114000 -0.018898
					CHANNELS 3 Zrotation Yrotation Xrotation
					JOINT lshoulder
					{
						OFFSET 0.122921 0.045205 -0.019046
						CHANNELS 3 Zrotation Yrotation Xrotation
						JOINT lelbow
						{
							OFFSET 0.255332 -0.015649 -0.022946
							CHANNELS 3 Zrotation Yrotation Xrotation
							JOINT lwrist
							{
								OFFSET 0.265709 0.012698 -0.007375
								CHANNELS 3 Zrotation Yrotation Xrotation
								End Site
								{
									OFFSET 0.000000 0.000000 0.000000
								}
							}
						}
					}
				}
				JOINT rclavicle
				{
					OFFSET -0.082954 0.112472 -0.023707
					CHANNELS 3 Zrotation Yrotation Xrotation
					JOINT rshoulder
					{
						OFFSET -0.113228 0.046853 -0.008472
						CHANNELS 3 Zrotation Yrotation Xrotation
						JOINT relbow
						{
							OFFSET -0.260127 -0.014369 -0.031269
							CHANNELS 3 Zrotation Yrotation Xrotation
							JOINT rwrist
							{
								OFFSET -0.269108 0.006794 -0.006027
								CHANNELS 3 Zrotation Yrotation Xrotation
								End Site
								{
									OFFSET 0.000000 0.000000 0.000000
								}
							}
						}
					}
				}
			}
		}
	}
}
MOTION
Frames: 13
Frame Time: 0.033333
-0.049988 -0.114631 0.964691 -178.401238 -0.622678 90.534982 8.644697 3.561931 -13.000126 -7.741758 -3.310661 19.677826 1.207010 4.502013 -11.234366 0.000000 -0.000000 0.000000 -12.712824 -8.137367 -16.440081 1.007839 -4.355590 23.205161 6.401163 -2.770527 -6.068749 0.000000 -0.000000 0.000000 0.696128 4.463650 19.098885 2.919823 -3.263196 4.775517 2.605655 1.399389 -1.799262 -2.194758 6.500360 10.551174 3.911889 0.681031 22.515693 -22.057062 -30.117035 6.852689 -74.877595 -26.350563 27.106747 3.342093 -13.946615 6.146991 23.096090 11.153130 -25.070761 28.703279 27.271902 12.847999 64.881650 29.998619 13.986698 -12.306159 8.412380 -20.547477 5.258841 3.702211 -34.774520 
-0.050614 -0.114829 0.964800 -178.215835 -0.617287 90.568571 8.615918 3.395072 -13.101813 -7.641342 -3.030651 19.720885 1.504748 4.176780 -11.296241 0.000000 -0.000000 0.000000 -12.773263 -7.770602 -16.229023 0.948401 -4.096946 23.074076 5.937542 -2.311553 -6.775591 0.000000 -0.000000 0.000000 0.767856 4.468309 19.111288 3.065208 -3.242899 4.669860 2.533050 1.409190 -1.760890 -1.962804 6.601284 10.428217 3.661169 0.388662 22.787484 -22.117743 -29.942322 6.929376 -74.809946 -26.583101 26.850039 3.157065 -13.717055 6.187067 20.778747 9.772257 -25.104804 28.668978 26.930550 12.433286 65.222748 29.947436 14.269259 -12.548963 8.036906 -20.316568 5.975394 4.116451 -34.492476 
-0.051092 -0.114640 0.964494 -178.119377 -0.625890 90.578980 8.568306 3.381271 -13.101011 -7.663855 -3.103560 19.713447 1.543965 4.161008 -11.329685 0.000000 -0.000000 0.000000 -12.827506 -7.723240 -16.146596 1.002174 -3.921248 23.044763 5.836226 -2.302209 -7.075166 0.000000 -0.000000 0.000000 0.800064 4.496191 19.095895 3.123962 -3.261405 4.630644 2.516811 1.407914 -1.723600 -1.996022 6.599924 10.488152 3.735373 0.419781 22.722654 -22.170549 -30.084347 7.079308 -74.700846 -26.647370 26.827389 3.257997 -13.795246 5.992271 21.589481 9.895179 -24.438603 28.706277 27.012365 12.454429 65.217953 29.947356 14.249567 -12.593156 7.976116 -20.415067 5.978934 4.033380 -34.536402 
-0.051484 -0.114567 0.964209 -178.083812 -0.628303 90.603451 8.571089 3.375097 -13.165736 -7.719283 -3.091373 19.786878 1.584930 4.172467 -11.386542 0.000000 -0.000000 0.000000 -12.793953 -7.404483 -15.945550 0.918448 -3.239087 22.780988 5.847807 -2.148834 -7.564921 0.000000 -0.000000 0.000000 0.757002 4.531354 19.019611 3.179504 -3.277416 4.748516 2.531457 1.416490 -1.708391 -1.912481 6.675929 10.384043 3.712685 0.490267 22.759496 -22.119686 -30.060542 7.023594 -74.712514 -26.805870 26.753052 3.188622 -13.596879 5.751562 22.355259 9.799919 -23.697636 28.664059 26.976570 12.454136 65.295592 30.223510 14.254273 -12.542091 7.702164 -20.726420 5.985778 4.184258 -34.001962 
-0.051610 -0.114375 0.964387 -178.187208 -0.617413 90.533134 8.579072 3.478810 -13.003523 -7.722006 -3.083091 19.724062 1.554143 4.141640 -11.387050 0.000000 -0.000000 0.000000 -12.813943 -7.760085 -16.141723 0.938886 -3.985996 23.104482 5.803447 -2.221426 -7.080720 0.000000 -0.000000 0.000000 0.757471 4.621642 19.237186 3.155238 -3.262679 4.562881 2.600192 1.409961 -1.726296 -1.984863 6.630766 10.496193 3.820869 0.589474 22.752969 -22.173114 -30.131318 7.047587 -74.686007 -26.640372 26.650138 3.229433 -13.709980 5.673446 22.920716 9.917086 -23.508212 28.615547 27.053846 12.544541 65.434381 30.147008 14.200803 -12.688062 7.836640 -20.629283 5.807490 4.097004 -34.313979 
-0.051833 -0.114302 0.964301 -178.230037 -0.598999 90.542814 8.612021 3.464230 -13.010816 -7.746558 -3.073676 19.745228 1.558272 4.145359 -11.406782 0.000000 -0.000000 0.000000 -12.820218 -7.734167 -16.101740 0.982360 -3.865914 23.043162 5.814799 -2.181959 -7.071506 0.000000 -0.000000 0.000000 0.732907 4.599419 19.182470 3.185535 -3.287921 4.668063 2.615371 1.478735 -1.750705 -2.012636 6.638740 10.491979 3.807838 0.645828 22.768699 -22.238569 -30.167215 7.083231 -74.635343 -26.585699 26.576194 3.341470 -13.734836 5.570848 22.819221 9.830029 -23.484582 28.657157 27.158489 12.701000 65.363597 30.181361 14.122465 -12.760774 7.896363 -20.732248 5.910035 4.093765 -34.165538 
-0.051962 -0.114277 0.964239 -178.227370 -0.586211 90.524412 8.614212 3.489768 -12.994682 -7.738819 -3.051569 19.756115 1.575243 4.122591 -11.402932 0.000000 -0.000000 0.000000 -12.805954 -7.773635 -16.092907 0.941132 -3.911542 23.043731 5.855189 -2.173894 -7.062848 0.000000 -0.000000 0.000000 0.765672 4.623551 19.211226 3.184065 -3.292489 4.689934 2.612424 1.479140 -1.741009 -2.010870 6.609136 10.508685 3.831272 0.582807 22.671064 -22.228338 -30.168796 7.067946 -74.619991 -26.595180 26.569151 3.315541 -13.767030 5.679241 22.811779 9.920022 -23.296380 28.643095 27.183028 12.628396 65.395180 30.178532 14.092037 -12.811465 7.808733 -20.686099 5.840794 4.052265 -34.036162 
-0.052110 -0.114266 0.964191 -178.234278 -0.595764 90.523713 8.609550 3.507950 -13.055785 -7.820385 -3.130705 19.876310 1.563923 4.203629 -11.433575 0.000000 -0.000000 0.000000 -12.847748 -7.763067 -16.083490 0.984623 -3.901080 23.045967 5.820736 -2.148982 -7.074571 0.000000 -0.000000 0.000000 0.770785 4.653892 19.217474 3.176753 -3.294917 4.724947 2.596954 1.503213 -1.769705 -1.994382 6.599357 10.531681 3.866016 0.540215 22.632988 -22.204215 -30.235132 7.086375 -74.619224 -26.635963 26.585303 3.287526 -13.670653 5.720653 22.829124 9.868202 -23.348939 28.698460 27.199600 12.626557 65.359612 30.088245 14.038782 -12.862144 7.901488 -20.727363 5.692970 4.020792 -34.019905 
-0.052272 -0.114247 0.964127 -178.219220 -0.598584 90.576674 8.581193 3.498037 -13.061205 -7.758457 -3.032983 19.788752 1.595074 4.126177 -11.451020 0.000000 -0.000000 0.000000 -12.853732 -7.782772 -16.128353 0.970832 -3.895040 23.030556 5.877102 -2.143433 -6.999108 0.000000 -0.000000 0.000000 0.786890 4.705148 19.197895 3.186236 -3.294569 4.622813 2.617869 1.442863 -1.741898 -2.024223 6.623736 10.621884 3.904346 0.614096 22.616711 -22.244864 -30.303339 7.141718 -74.570741 -26.623487 26.565992 3.267872 -13.645811 5.561493 23.105864 9.925559 -23.311940 28.662750 27.162909 12.725054 65.353716 30.180431 14.036252 -12.812471 7.880060 -20.630707 5.665792 4.019750 -34.054628 
-0.052355 -0.114287 0.964157 -178.180412 -0.606151 90.583489 8.573776 3.475900 -13.127592 -7.813018 -3.118379 19.871217 1.614230 4.143818 -11.431849 0.000000 -0.000000 0.000000 -12.889940 -7.726218 -16.049454 0.974809 -3.724968 22.928499 5.878146 -2.014428 -7.023467 0.000000 -0.000000 0.000000 0.770675 4.727204 19.220027 3.213951 -3.295156 4.601120 2.628788 1.434866 -1.746058 -1.976483 6.627767 10.596791 3.871497 0.586626 22.656410 -22.212946 -30.304179 7.135439 -74.608898 -26.656163 26.609351 3.304960 -13.610322 5.700033 22.908281 9.886587 -23.231319 28.641424 27.132572 12.628914 65.417909 30.149910 14.068998 -12.860430 7.852753 -20.733560 5.745328 4.037133 -34.187189 
-0.052552 -0.114085 0.964182 -178.200216 -0.618176 90.537439 8.534646 3.528961 -13.008815 -7.778193 -3.114596 19.775535 1.603034 4.093249 -11.431760 0.000000 -0.000000 0.000000 -12.879213 -7.823992 -16.064071 0.938206 -3.919765 23.007520 5.891045 -2.090962 -7.081470 0.000000 -0.000000 0.000000 0.801724 4.742322 19.302412 3.175162 -3.291613 4.582439 2.625260 1.446167 -1.790345 -1.969613 6.584749 10.647198 3.898383 0.586364 22.658735 -22.183520 -30.366130 7.117270 -74.593746 -26.608779 26.598084 3.293687 -13.587403 5.581518 23.246631 9.886867 -23.163209 28.638360 27.216253 12.639422 65.453450 30.083811 14.081495 -12.914916 7.849356 -20.829778 5.528335 3.867340 -34.094867 
-0.052590 -0.113866 0.964187 -178.098298 -0.608472 90.569208 8.536036 3.499523 -13.057043 -7.788893 -3.140785 19.793737 1.646364 4.082511 -11.438986 0.000000 -0.000000 0.000000 -12.886708 -7.858364 -15.976630 0.947679 -3.887833 22.874078 5.894190 -2.145076 -7.104675 0.000000 -0.000000 0.000000 0.819656 4.776458 19.300436 3.231618 -3.308081 4.472256 2.682080 1.375408 -1.806678 -2.026754 6.531428 10.664425 3.897829 0.674893 22.732194 -22.237195 -30.397510 7.223886 -74.575104 -26.613881 26.616795 3.296220 -13.575116 5.593638 23.143395 9.777725 -23.277416 28.631160 27.221389 12.679499 65.390022 29.997722 14.044099 -12.796068 7.966031 -20.983944 5.709770 4.119579 -34.469804 
-0.052736 -0.113831 0.964137 -178.046434 -0.616485 90.582381 8.498338 3.514774 -13.120563 -7.795185 -3.260046 19.868675 1.602366 4.129326 -11.424123 0.000000 -0.000000 0.000000 -12.879258 -7.912525 -16.017446 0.902163 -3.948643 22.925190 5.907011 -2.171126 -7.118122 0.000000 -0.000000 0.000000 0.874905 4.794602 19.296970 3.247415 -3.302005 4.428999 2.682517 1.349919 -1.778669 -2.021375 6.549938 10.661290 3.841770 0.617022 22.719205 -22.249168 -30.417058 7.212939 -74.582155 -26.653223 26.628308 3.293915 -13.424602 5.740249 23.222604 9.716025 -23.167095 28.638117 27.162483 12.644487 65.381350 29.969463 14.058029 -12.729666 8.087262 -20.832262 5.268478 3.944267 -34.568726 
